<svg xmlns="http://www.w3.org/2000/svg" width="38" height="38" viewBox="0 0 38 38"><g><g><path fill="#fff" d="M19 37c9.941 0 18-8.059 18-18S28.941 1 19 1 1 9.059 1 19s8.059 18 18 18z"/><path fill="none" stroke="#dfdfdf" stroke-miterlimit="20" d="M19 37c9.941 0 18-8.059 18-18S28.941 1 19 1 1 9.059 1 19s8.059 18 18 18z"/></g><g><path fill="#273f70" d="M10.823 27.157l-.002-.036a3.916 3.916 0 0 1 .324-1.77c.491-1.093 1.486-1.735 3.314-1.735h9.083c1.825 0 2.82.642 3.311 1.734a3.922 3.922 0 0 1 .324 1.808.908.908 0 0 0 1.807.178 5.664 5.664 0 0 0-.475-2.731c-.786-1.744-2.429-2.805-4.967-2.805h-9.083c-2.541 0-4.185 1.06-4.97 2.805a5.658 5.658 0 0 0-.472 2.732.908.908 0 0 0 1.806-.18zm4.543-11.71a3.63 3.63 0 1 1 7.262 0 3.63 3.63 0 0 1-7.262 0zm9.078 0a5.446 5.446 0 1 0-10.893 0 5.446 5.446 0 0 0 10.893 0z"/></g></g></svg>