<svg xmlns="http://www.w3.org/2000/svg" width="15" height="20" viewBox="0 0 15 20"><g><g><path fill="#273f70" d="M7.495 4.167a3.328 3.328 0 1 0 3.328 3.328zm.01 5.01a1.672 1.672 0 1 1 1.672-1.672zM15 7.5c0 1.067-.263 2.218-.753 3.443-.609 1.522-1.552 3.123-2.74 4.755a38.391 38.391 0 0 1-3.418 4.058.833.833 0 0 1-1.178 0A36.046 36.046 0 0 1 5.836 18.6a38.393 38.393 0 0 1-2.343-2.902c-1.188-1.632-2.131-3.233-2.74-4.755C.263 9.718 0 8.567 0 7.5A7.5 7.5 0 0 1 7.5 0l2.033 2.033A5.83 5.83 0 0 0 1.667 7.5c0 .834.217 1.783.634 2.825.55 1.377 1.426 2.864 2.538 4.394a36.744 36.744 0 0 0 2.657 3.238 37.48 37.48 0 0 0 2.657-3.238c1.112-1.53 1.988-3.017 2.538-4.394l.633-2.824c0-.72-.13-1.409-.368-2.045zM9.534 2.034l3.421 3.421a5.849 5.849 0 0 0-3.421-3.421z"/></g></g></svg>